<?xml version="1.0" ?><!DOCTYPE svg  PUBLIC '-//W3C//DTD SVG 1.1//EN'  'http://www.w3.org/Graphics/SVG/1.1/DTD/svg11.dtd'><svg id="Layer_1" style="enable-background:new 0 0 30.2 30.2;" version="1.1" viewBox="0 0 30.2 30.2" xml:space="preserve" xmlns="http://www.w3.org/2000/svg" xmlns:xlink="http://www.w3.org/1999/xlink"><style type="text/css">
	.st0{fill:none;stroke:#414042;stroke-width:1.25;stroke-linecap:round;stroke-linejoin:round;stroke-miterlimit:10;}
	.st1{fill:none;stroke:#414042;stroke-width:1.1713;stroke-linecap:round;stroke-linejoin:round;stroke-miterlimit:10;}
</style><g><g><polyline class="st0" points="8.6,1 10.6,5.9 12.8,0.7   "/><line class="st0" x1="10.6" x2="10.6" y1="11.1" y2="5.9"/></g><path class="st0" d="M14.5,11L14.5,11c-0.6,0-1.1-0.5-1.1-1.1V5c0-0.6,0.5-1.1,1.1-1.1h0c0.6,0,1.1,0.5,1.1,1.1v4.9   C15.7,10.5,15.2,11,14.5,11z"/><g><path class="st0" d="M26.3,15.2v12.4c0,1.1-0.9,2-2,2H5c-1.1,0-2-0.9-2-2V15.2c0-1.1,0.9-2,2-2h13.8l1,0l0-3.7"/><path class="st0" d="M19.9,3.8v6.1c0,0.6-0.5,1.1-1.1,1.1h0c-0.6,0-1.1-0.5-1.1-1.1V3.8"/></g><g><line class="st0" x1="13.2" x2="13.2" y1="25.9" y2="24.4"/><path class="st0" d="M13.1,18.7v6.1c0,0.6-0.5,1.1-1.1,1.1h0c-0.6,0-1.1-0.5-1.1-1.1v-6.1"/></g><g><line class="st0" x1="8.2" x2="8.2" y1="25.9" y2="16.4"/><line class="st0" x1="6.1" x2="10.5" y1="16.2" y2="16.2"/></g><g><line class="st0" x1="15.4" x2="15.4" y1="25.9" y2="16.4"/><path class="st0" d="M16.7,25.8h-0.1c-0.6,0-1-0.5-1-1v-4.1c0-0.6,0.5-1,1-1h0.1c0.6,0,1,0.5,1,1v4.1    C17.7,25.4,17.2,25.8,16.7,25.8z"/></g><path class="st0" d="M22.3,24.1v0.6c0,0.7-0.5,1.2-1.2,1.2h-0.2c-0.7,0-1.2-0.5-1.2-1.2v-4.5c0-0.7,0.5-1.2,1.2-1.2h0.2   c0.7,0,1.2,0.5,1.2,1.2v1.9h-2.4"/></g></svg>