<?xml version="1.0" standalone="no"?><svg xmlns="http://www.w3.org/2000/svg" viewBox="0 0 1440 320"><path fill="#ffffff" fill-opacity="1" d="M0,128L30,138.7C60,149,120,171,180,154.7C240,139,300,85,360,69.3C420,53,480,75,540,74.7C600,75,660,53,720,80C780,107,840,181,900,202.7C960,224,1020,192,1080,154.7C1140,117,1200,75,1260,85.3C1320,96,1380,160,1410,192L1440,224L1440,320L1410,320C1380,320,1320,320,1260,320C1200,320,1140,320,1080,320C1020,320,960,320,900,320C840,320,780,320,720,320C660,320,600,320,540,320C480,320,420,320,360,320C300,320,240,320,180,320C120,320,60,320,30,320L0,320Z"></path></svg>